<?xml version="1.0" encoding="UTF-8" standalone="no"?>
<svg xmlns:rdf="http://www.w3.org/1999/02/22-rdf-syntax-ns#" xmlns="http://www.w3.org/2000/svg" height="40.2" width="25.1" version="1.1" xmlns:cc="http://creativecommons.org/ns#" xmlns:xlink="http://www.w3.org/1999/xlink" xmlns:dc="http://purl.org/dc/elements/1.1/">
<defs>
<linearGradient id="c" y2="504" gradientUnits="userSpaceOnUse" x2="445" gradientTransform="translate(-433 -503)" y1="541" x1="445">
<stop stop-color="#C8123F" offset="0"/>
<stop stop-color="#D24C6D" offset="1"/>
</linearGradient>
<linearGradient id="d" y2="504" gradientUnits="userSpaceOnUse" x2="352" gradientTransform="translate(-341 -503)" y1="523" x1="352">
<stop stop-color="#972D48" offset="0"/>
<stop stop-color="#B83959" offset="1"/>
</linearGradient>
</defs>
<rect height="14.5" width="12.6" y="4.51" x="6.33" fill="#fff"/>
<path d="m12.6 0.55c-6.58 0-12 5.69-12 11.8 0 2.78 1.56 6.31 2.69 8.75l9.31 17.9 9.26-17.9c1.13-2.44 2.74-5.79 2.74-8.75 0-6.18-5.38-11.9-12-11.9zm0 7.15c2.58 0.017 4.68 2.12 4.68 4.71s-2.1 4.66-4.68 4.68c-2.58-0.017-4.68-2.09-4.68-4.68s2.1-4.69 4.68-4.71z" stroke="url(#d)" stroke-linecap="round" stroke-width="1.1" fill="url(#c)"/>
<path d="m12.6 1.66c-5.94 0-10.9 5.22-10.9 10.8 0 2.36 1.44 5.83 2.56 8.25l0.031 0.031 8.31 16 8.25-16 0.031-0.031c1.14-2.45 2.62-5.71 2.62-8.25 0-5.54-4.93-10.8-10.9-10.8zm0 4.97c3.17 0.021 5.78 2.6 5.78 5.78s-2.61 5.76-5.78 5.78c-3.17-0.02-5.75-2.61-5.75-5.78s2.58-5.76 5.75-5.78z" stroke-opacity=".122" stroke="#fff" stroke-linecap="round" stroke-width="1.1" fill="none"/>
</svg>
